<svg id="Layer_2" data-name="Layer 2" xmlns="http://www.w3.org/2000/svg" width="20.479" height="20.479" viewBox="0 0 20.479 20.479">
  <g id="Layer_1" data-name="Layer 1">
    <path id="Path_781" data-name="Path 781" d="M17.919,0H2.56A2.56,2.56,0,0,0,0,2.56V19.624a.858.858,0,0,0,.5.778.88.88,0,0,0,.358.077.854.854,0,0,0,.554-.2l5.014-4.3a2.56,2.56,0,0,1,1.667-.618h9.83a2.56,2.56,0,0,0,2.56-2.56V2.56A2.56,2.56,0,0,0,17.919,0Zm.854,12.8a.858.858,0,0,1-.854.854H8.089a4.275,4.275,0,0,0-2.777,1.027L1.705,17.772V2.56a.858.858,0,0,1,.854-.854H17.919a.858.858,0,0,1,.854.854Z" fill="#263238"/>
    <path id="Path_782" data-name="Path 782" d="M25.274,15.687H16.743a.854.854,0,1,0,0,1.705h8.531a.854.854,0,1,0,0-1.705Z" transform="translate(-10.769 -10.666)" fill="#263238"/>
    <path id="Path_783" data-name="Path 783" d="M25.274,26.357H16.743a.854.854,0,1,0,0,1.705h8.531a.854.854,0,1,0,0-1.705Z" transform="translate(-10.769 -17.922)" fill="#263238"/>
  </g>
</svg>
